<?xml version="1.0" encoding="utf-8"?>
<!-- Generator: Adobe Illustrator 27.0.0, SVG Export Plug-In . SVG Version: 6.00 Build 0)  -->
<svg version="1.1" xmlns="http://www.w3.org/2000/svg" xmlns:xlink="http://www.w3.org/1999/xlink" x="0px" y="0px"
	 viewBox="0 0 100 100" style="enable-background:new 0 0 100 100;" xml:space="preserve">
<style type="text/css">
	.st0{display:none;}
	.st1{display:inline;}
	.st2{fill:#010101;}
	.st3{fill:#FFFFFF;}
	.st4{display:inline;fill:#FFFFFF;}
</style>
<g id="Layer_1" class="st0">
	<g class="st1">
		<path class="st2" d="M60.3,94.7c-3.6,0.3-7.2-3.8-7.1-7.3c0.1-3.9,3.3-7,7.3-7c3.8,0,6.8,3.2,7,7C67.5,91.1,63.9,95.3,60.3,94.7z"
			/>
		<path class="st2" d="M10.9,69.2c-4.1,0.2-7.1-3.3-7.2-7c0-3.9,3.2-7.1,7-7.1c4.1,0,7.2,3,7.2,7C18.1,66.4,15.2,69.3,10.9,69.2z"/>
		<path class="st2" d="M94.5,39c0,4.1-2.9,6.9-7,7c-4.6,0.1-7.2-3.8-7.2-7.1c0-3.8,3.4-7.2,7.3-7.1C91,32,94.8,34.6,94.5,39z"/>
		<path class="st2" d="M38.7,19.1c-4.5-0.1-7.2-2.9-7.2-7c0-4,2.4-7,7.1-7.2c3.8-0.2,7.1,3.3,7.1,7.2C45.7,15.9,42.6,19.1,38.7,19.1
			z"/>
		<path class="st2" d="M99.2,53.4c0,3.5-2.4,5.9-5.9,6c-3.4,0.1-5.9-2.4-6-5.7c-0.1-3.3,2.7-6,5.9-6.1
			C96.4,47.6,99.1,50.3,99.2,53.4z"/>
		<path class="st2" d="M45.1,98.3c-2.6,0-6-2.3-5.8-6.2c0.1-3.4,3.1-5.8,6-5.7c3.1,0.1,5.8,3,5.6,6.2C50.7,95.7,48.1,98.3,45.1,98.3
			z"/>
		<path class="st2" d="M53.8,1.7c3.6,0,5.9,2.2,6,5.7c0.1,3.3-2.9,5.8-5.9,5.9c-2.8,0.1-6-2.6-5.8-6.1C48.2,3.9,50.3,1.7,53.8,1.7z"
			/>
		<path class="st2" d="M26.8,28.6C23.4,28.5,21,26,21,22.5c0.1-2.9,2.9-5.6,5.9-5.6c3.1,0.1,5.8,2.8,5.8,6
			C32.7,26.3,30.1,28.7,26.8,28.6z"/>
		<path class="st2" d="M29.3,74.3c0,3.3-2.4,5.8-5.6,5.9c-3.2,0-6.1-2.8-6.1-5.9c0-3,2.9-5.8,6-5.8C26.6,68.4,29.3,71.2,29.3,74.3z"
			/>
		<path class="st2" d="M6.7,39.8c3.6,0,6,2.2,5.8,5.6c-0.2,3.6-2.1,5.5-5.7,5.8c-3,0.3-6.2-2.8-6-5.8C1,42.5,2.6,39.7,6.7,39.8z"/>
		<path class="st2" d="M76.9,20.1c3.6-0.2,5.9,2.4,6.1,5.3c0.2,3.3-2.6,6.1-5.9,6.2c-2.7,0.1-5.8-2.4-5.7-5.6
			C71.4,22.4,73.3,20.2,76.9,20.1z"/>
		<path class="st2" d="M73.2,70.5c3.3,0,5.7,2.4,5.6,5.6c-0.1,3.8-2.8,6-5.7,5.9c-3.1-0.1-5.7-2.1-5.7-6
			C67.4,72.7,69.7,70.5,73.2,70.5z"/>
		<path class="st2" d="M7.6,37.2c-2.5,0-4.8-2.2-4.8-4.7s2.2-4.6,4.9-4.6c2.6,0,4.5,1.9,4.5,4.5C12.2,35.4,10.5,37.2,7.6,37.2z"/>
		<path class="st2" d="M35.2,84.8c-2.3,0-4.6-2.4-4.7-4.8c0-2.6,2.2-4.8,4.7-4.8c2.4,0,4.6,2.3,4.6,4.8
			C39.9,82.3,37.5,84.8,35.2,84.8z"/>
		<path class="st2" d="M25.9,90.9c0.1-2.7,2-4.7,4.6-4.6c2.4,0.1,4.6,2.4,4.6,4.8c-0.1,2.5-2.2,4.6-4.8,4.6
			C27.6,95.7,25.9,93.7,25.9,90.9z"/>
		<path class="st2" d="M63.4,16.7c2.6,0,4.9,2.2,4.8,4.5c-0.1,2.3-2.6,4.7-5,4.7c-2.6,0-4.5-2.1-4.4-4.8
			C58.9,18.2,60.5,16.7,63.4,16.7z"/>
		<path class="st2" d="M86,67.5c0.1-2.9,1.7-4.5,4.4-4.5c2.6,0,4.8,2.4,4.8,4.8c-0.1,2.3-2.6,4.8-4.9,4.6
			C87.6,72.2,85.8,70.8,86,67.5z"/>
		<path class="st2" d="M73.8,63.6c0-2.7,1.8-4.7,4.4-4.7c2.4,0,4.8,2.3,4.8,4.6c0,2.6-2.1,4.6-4.7,4.7
			C75.5,68.2,73.8,66.5,73.8,63.6z"/>
		<path class="st2" d="M20.9,31.5c2.4,0,4.6,2.1,4.6,4.6c0,2.4-2.3,4.6-4.6,4.6c-2.6,0-4.7-2-4.7-4.6C16.1,33.2,17.9,31.5,20.9,31.5
			z"/>
		<path class="st2" d="M64,8.7c-0.2-2.5,1.5-4.5,4.3-4.6c3.3-0.1,4.8,2.4,4.9,4.5c0.1,2.4-2.3,4.7-4.8,4.8C66,13.5,64,11.3,64,8.7z"
			/>
		<path class="st2" d="M21.7,86.3c0,1.1-1,2.3-2.1,2.3c-1.2,0.1-2.3-1.1-2.3-2.3s0.9-2.2,2.1-2.3C20.6,84,21.7,85.1,21.7,86.3z"/>
		<path class="st2" d="M78.5,16.2c-1.3,0-2.3-1.1-2.2-2.3s1.1-2.1,2.3-2.1s2.3,1.1,2.2,2.3C80.7,15.1,79.5,16.2,78.5,16.2z"/>
		<path class="st2" d="M79.2,55.6c-1.1,0-2.1-1-2.1-2.3c0-1.2,1-2.3,2.1-2.3c1.1,0,2.3,1.2,2.3,2.2C81.4,54.5,80.3,55.6,79.2,55.6z"
			/>
		<path class="st2" d="M46.5,82.6c-1.3,0-2.1-0.9-2.1-2.2c0-1.3,0.9-2.4,2.2-2.3c1.1,0,2.1,1.1,2.1,2.3
			C48.7,81.6,47.7,82.6,46.5,82.6z"/>
		<path class="st2" d="M15.1,22.6c0.1,1.1-0.9,2.2-1.9,2.3c-1.3,0.1-2.3-0.9-2.4-2.2c-0.1-1.2,0.9-2.1,2.1-2.2S15,21.3,15.1,22.6z"
			/>
		<path class="st2" d="M85.7,80.8c-1.2,0.1-2-0.8-2.1-2c-0.1-1.3,0.6-2.1,1.8-2.3c1.3-0.1,2.5,0.9,2.5,2
			C87.9,79.6,86.8,80.7,85.7,80.8z"/>
		<path class="st2" d="M19.4,45.9c1.3,0.1,2.2,0.8,2.1,2c-0.1,1.1-1.1,2.1-2.1,2.1c-1.2,0-2.2-1-2.1-2.2
			C17.3,46.5,18,45.9,19.4,45.9z"/>
		<path class="st2" d="M51.7,18.5c1.6,0.3,2.4,1.2,2.4,2.4C54,22,53,23,52,23c-0.9,0-2.6-1.4-2.2-2.2C50.2,19.9,51,19.2,51.7,18.5z"
			/>
		<path class="st2" d="M85.4,19.1c-0.7,0.3-1.1,0.8-1.4,0.6c-0.3-0.1-0.6-0.6-0.7-1c-0.1-0.2,0.6-0.6,0.8-0.6
			C84.6,18.2,84.9,18.6,85.4,19.1z"/>
		<path class="st2" d="M55,78.9c-0.5,0.4-0.8,0.6-1.1,0.9c-0.3-0.3-0.6-0.6-0.7-0.9c0-0.2,0.5-0.7,0.8-0.7
			C54.2,78.1,54.5,78.6,55,78.9z"/>
		<path class="st2" d="M18.6,16c-0.6,0.4-1,0.8-1.3,0.8c-0.3,0-0.6-0.4-0.9-0.7c0.3-0.3,0.6-0.6,0.8-0.7
			C17.5,15.3,17.9,15.6,18.6,16z"/>
		<path class="st2" d="M78.3,45.2c-0.6,0.3-0.9,0.6-1.3,0.6c-0.3-0.1-0.5-0.4-0.8-0.7c0.3-0.3,0.6-0.7,0.9-0.7
			C77.5,44.3,77.8,44.7,78.3,45.2z"/>
	</g>
</g>
<g id="eye" class="st0">
	<g class="st1">
		<path d="M48.5,78.5C29.9,77.9,15.2,67,2.3,53.3c-1.1-1.2-0.9-5.6,0.4-6.9c11.1-11.9,23.8-21.6,40.4-24.2
			c17.2-2.7,31.4,4.4,44,15.1c15.2,12.8,15.1,13.3-0.4,26.1C76,72.1,64.1,78.1,48.5,78.5z M5,49.3c15.4,18,38.2,31.4,59.5,21.9
			c9.8-4.4,18.3-12,27.1-18.4c0.9-0.7,1.4-3.9,0.7-4.5c-5.4-5.1-11.1-9.9-16.4-14.5c-2,9-2.5,17.2-5.8,24.2
			c-3.6,7.7-11.4,12-20,11.6c-5.3-0.3-11.2-2.5-15.5-5.6c-9.8-7.2-10.4-18.1-8.4-29.6c-0.7-0.3-1.4-0.5-2.1-0.8
			C17.8,38.7,11.6,43.8,5,49.3z M70.3,43.4c0-12.2-6.6-17.8-20.9-17.7c-13.9,0.1-20.1,5.5-20,17.7c0,12.3,8.7,21.7,20.1,21.8
			C61.1,65.4,70.3,55.7,70.3,43.4z"/>
		<path class="st3" d="M5,49.3c6.6-5.4,12.8-10.6,19-15.7c0.7,0.3,1.4,0.5,2.1,0.8c-2,11.5-1.3,22.4,8.4,29.6
			c4.3,3.1,10.2,5.3,15.5,5.6c8.6,0.5,16.5-3.8,20-11.6c3.2-7,3.8-15.2,5.8-24.2c5.3,4.6,11,9.3,16.4,14.5c0.7,0.6,0.2,3.9-0.7,4.5
			c-8.9,6.4-17.3,14-27.1,18.4C43.2,80.7,20.4,67.3,5,49.3z"/>
		<path class="st3" d="M70.3,43.4c0,12.3-9.2,22-20.8,21.9c-11.4-0.1-20.1-9.5-20.1-21.8c0-12.2,6.1-17.7,20-17.7
			C63.6,25.6,70.3,31.2,70.3,43.4z M49.8,32.6c-5.3-0.1-10,4.9-10,10.6c0,6,4.2,10.9,9.7,11c5.6,0.2,10.6-5,10.6-11
			C59.9,37.7,55.2,32.7,49.8,32.6z"/>
		<path d="M49.8,32.6c5.4,0.1,10.2,5,10.2,10.6c0,6-4.9,11.1-10.6,11c-5.4-0.1-9.7-5-9.7-11C39.8,37.5,44.4,32.6,49.8,32.6z"/>
	</g>
</g>
<g id="hand" class="st0">
	<path class="st1" d="M33.8,57.7c0.2-3.6,0.4-5.4,0.4-7.3c0-9.3,0-18.7,0-28c0-1.4,0.1-2.7,0-4.1c-0.2-7.7,7.9-5.9,10.9-9.7
		c5.2-6.3,6.2-6.7,12.6-2.5c0.9,0.6,2.1,1.2,3.1,1.1c5.2-0.6,8,1.5,9.1,6.7c0.2,1.1,2.2,2.5,3.5,2.7c4.9,0.5,6.9,3.6,7,7.9
		c0.2,19.4,0.4,38.9-0.1,58.3c-0.2,9.3-6.8,14.7-16.1,15C43,98.5,43,98.5,27.4,77.5c-3.1-4.2-6.2-8.4-9.2-12.7c-1.2-1.7-3-4-2.6-5.7
		c0.6-3.3,1.8-7.1,4.1-9.3c2.7-2.6,6.2-1.1,8.7,1.6C29.8,53.1,31.3,54.8,33.8,57.7z M36.7,67.3c-4-4.7-7-7.9-9.5-11.4
		c-1.9-2.6-3.9-4.2-6.7-2.3c-3.1,2.1-2.2,4.9-0.3,7.6c5.4,7.4,11.2,14.5,15.8,22.3c5.3,9,12.7,11.9,22.5,10.7c1-0.1,1.9,0,2.9,0
		c11.2-0.2,16-4.9,16-16.1c0.1-16.6,0-33.1,0-49.7c0-0.6,0.2-1.3-0.1-1.7c-1.2-2.1-2.6-4.1-3.9-6.2c-1.2,2-3.1,3.9-3.3,5.9
		C69.7,32,70,37.7,70,43.3c0,1.5-0.5,3.1-0.7,4.6c-0.6,0-1.2,0.1-1.8,0.1c-0.4-1.8-1-3.6-1.1-5.4c-0.1-7.8,0.1-15.6-0.1-23.4
		c-0.1-3,1.6-7.9-3.1-8.1c-5.2-0.3-4,4.7-4.1,8C58.9,25.7,59,32.4,59,39c0,1.8-0.4,3.5-0.6,5.3c-0.6,0-1.2,0-1.8,0.1
		c-0.3-1.9-0.7-3.8-0.7-5.8c-0.1-8.2,0-16.4-0.1-24.5c0-2.9,0.3-6.6-3.8-6.4c-1.2,0.1-3.1,3.9-3.1,6.1c-0.4,9.1-0.1,18.3-0.2,27.5
		c0,1.7-0.5,3.4-0.7,5.1c-0.6,0-1.3,0-1.9,0c-0.3-1.9-0.9-3.8-1-5.7c-0.1-6.4,0.3-12.9-0.2-19.3c-0.2-2.3-2.4-4.4-3.7-6.7
		c-1.1,2.2-3.1,4.3-3.2,6.5c-0.3,12.7-0.1,25.3-0.2,38C37.8,61.3,37.2,63.4,36.7,67.3z"/>
	<path class="st4" d="M36.8,66.9c0.6-3.8,1.1-5.9,1.1-8.1c0.1-12.7-0.1-25.3,0.2-38c0.1-2.2,2.1-4.3,3.2-6.5
		c1.3,2.2,3.5,4.4,3.7,6.7c0.5,6.4,0.1,12.8,0.2,19.3c0,1.9,0.6,3.8,1,5.7c0.6,0,1.3,0,1.9,0c0.3-1.7,0.7-3.4,0.7-5.1
		c0.1-9.2-0.2-18.3,0.2-27.5c0.1-2.2,1.9-6,3.1-6.1c4.1-0.3,3.8,3.5,3.8,6.4c0,8.2,0,16.4,0.1,24.5c0,1.9,0.5,3.9,0.7,5.8
		c0.6,0,1.2,0,1.8-0.1c0.2-1.8,0.6-3.5,0.6-5.3c0.1-6.6-0.1-13.2,0.1-19.9c0.1-3.3-1.1-8.3,4.1-8c4.7,0.3,3,5.1,3.1,8.1
		c0.2,7.8,0,15.6,0.1,23.4c0,1.8,0.7,3.6,1.1,5.4c0.6,0,1.2-0.1,1.8-0.1c0.2-1.5,0.7-3.1,0.7-4.6c0.1-5.6-0.2-11.3,0.2-16.9
		c0.2-2.1,2.2-4,3.3-5.9c1.3,2.1,2.7,4.1,3.9,6.2c0.3,0.4,0.1,1.1,0.1,1.7c0,16.6,0,33.1,0,49.7c0,11.3-4.8,16-16,16.1
		c-1,0-2-0.1-2.9,0c-9.8,1.2-17.2-1.7-22.5-10.7c-4.6-7.8-10.5-14.9-15.8-22.3c-2-2.7-2.8-5.5,0.3-7.6c2.8-1.9,4.8-0.3,6.7,2.3
		C29.8,59,32.8,62.2,36.8,66.9z"/>
</g>
<g id="feet" class="st0">
	<path class="st1" d="M90.8,8.1c-0.2,2.2-0.3,4.4-0.6,6.5c-1.8,10.4-4.6,20.7-5.3,31.1c-0.6,9,0.7,18.2,2.2,27.2
		c2.4,15-3.6,21.2-18.9,19.5C60,91.4,51.7,92.1,43.4,92C34.7,92,26,92.2,17.3,91.7c-4.5-0.3-7.6-3.4-8.1-8.2
		c-0.3-3.5,1.1-5.6,4.9-6.9c7.4-2.4,14.8-5.4,21.8-8.7c4.6-2.2,8.6-5.8,13.1-8.2c5.2-2.7,7-6.9,6.5-12.3c-1-11.3-2.3-22.5-3.3-33.8
		c-0.2-2,0-4,0-5.9c0.5-0.1,1-0.2,1.5-0.2c0.5,0.9,1.4,1.7,1.5,2.6c1.3,12.3,2.6,24.5,3.8,36.8c0.8,7.7-2.3,13.3-9.3,17.1
		c-7.8,4.2-15.4,9.1-23.2,13.3c-2.7,1.5-6,2-8.8,3.2c-1.7,0.7-3.2,2.1-4.8,3.1c1.6,1.6,3.2,4.4,4.9,4.5C28,88.2,38,87.6,48.1,87.5
		c5.7-0.1,11.4,0.2,17.1,0.5c3.2,0.1,6.3,0.6,9.5,0.6c6.8,0,10.1-3.7,9.3-10.7c-0.5-4.3-1.6-8.6-2.3-12.9c-3.1-19,1.8-37.1,6.2-55.3
		c0.2-0.8,1.1-1.3,1.7-2C90,7.8,90.4,7.9,90.8,8.1z"/>
	<path class="st1" d="M72.6,63.1c1.7,4.7,1.8,9.6-1.7,13.3c-1.8,1.9-5.6,2.8-8.3,2.5c-2-0.2-3.6-3.3-4.8-5.7c4-0.2,7.4,5.6,10.6,0.2
		c1.7-2.9,1.7-6.9,2.5-10.4C71.5,63,72.1,63.1,72.6,63.1z"/>
</g>
<g id="Arms" class="st0">
	<path class="st1" d="M76.1,90.5c-8.4-1.1-11-4.6-11.4-11.7c-0.5-8.6-1.6-17.1-3.2-26.2c-8.4,10.3-20.1,5.8-30,7.8
		c-2.7,0.6-7.6-3-9.5-5.9c-7.4-10.9-8.8-23.4-7.2-36.1c0.7-6,5.6-9.6,11.6-8.8c2.9,0.4,6.7,3.1,7.6,5.7c0.7,1.8-2.5,5.3-4.4,7.7
		c-0.7,1-2.5,1.2-4.7,2c2.9,3.6,5.5,6.8,7.3,9.1c4.8-1.9,8.9-3.3,12.7-5.1c1.4-0.7,2.7-2.4,3.4-3.9c2.6-5.9,6.9-9.4,13-11.1
		c4.1-1.1,8-2.6,12.1-3.7c1.4-0.4,2.9-0.3,4.3-0.4c0.2,0.6,0.3,1.1,0.5,1.7c-3.4,1.6-6.6,4-10.1,4.6c-10.2,1.6-17.5,5.8-18.6,17.5
		c-9.2-3-13.1,1.4-13.9,10.4c-0.6-0.1-1.2-0.2-1.7-0.2c-4.2-6.7-8.7-13.1-12.3-20.1c-1.5-2.8,0.9-4.9,4.5-5c1.5-0.1,3-1.8,4.5-2.7
		c-1.7-1.1-3.5-3.1-5.1-3c-3.9,0.2-7.5,2.5-7.8,6.6c-0.8,12.4,0.2,24.5,8.7,34.5c1.4,1.6,4.6,2.2,7,2.3c4.2,0.2,8.5-0.2,12.7-0.4
		c10-0.5,15.4-8.2,12.7-17.6c-0.6-2.1-0.3-4.5-0.5-6.7c0.6-0.1,1.1-0.3,1.7-0.4c0.5,1.3,1.1,2.6,1.5,3.9c4.5,14.5,9.9,15.2,20,11
		c0.7-0.3,1.4-0.8,2-0.8c0.8,0,1.6,0.4,2.4,0.7c-0.4,0.8-0.7,2-1.4,2.5c-4.4,3.1-11.6,4-18.8,2.3c-0.2,0.8-0.6,1.7-0.5,2.5
		c0.9,9,1.6,18,3,26.9c0.3,2.2,2.6,4.2,4.1,6.2C73.4,88,74.8,89.2,76.1,90.5z"/>
</g>
<g id="call" class="st0">
	<g class="st1">
		<path d="M22.8,96.3c-0.5-1.8-1.4-3.6-1.3-5.3c0.9-11.3-2.5-21.2-8.1-31C4.6,44.4,9.9,20.3,23.7,10c21.3-16,52-4.8,58,20.9
			c1.3,5.5,3.8,10.8,6.4,15.8c4.2,8,4,8.9-2.7,14.4c-1.7,1.4-2.4,4.6-2.5,7c-0.4,12.7-3.7,16.6-16.3,19.1c-1.2,0.2-2.6,1.9-2.9,3.1
			c-0.5,1.7-0.1,3.7-0.1,7.2c-5.1-4.3-3.1-8.7-3.1-12.3c0-0.8,3.4-2.3,5.2-2.3c9.9-0.1,13.7-3.4,13.7-13.4c0-5.5-0.2-10.7,6.4-13
			c0.8-0.3,1.3-3.3,0.8-4.7c-3.1-8.7-6.5-17.4-9.8-26C72.4,14.5,62.2,7.3,51.1,8.4c0,8.4-0.2,16.9,0.2,25.4c0.1,1.4,2.1,3,3.4,4.2
			c4.5,4.1,6.1,9.1,4.9,15c-1.4,6.9,1.3,11,8.6,11.8c3.5,0.4,5.7,2.1,5.5,5.2c-0.2,2-2.5,5.3-3.8,5.3c-2.1-0.1-5.1-2-5.9-3.9
			c-3.2-7.8-5.9-9.5-14.3-7.3c-6.2,1.6-12.6-1.3-15.5-6.9c-3.1-6-2.1-14.5,3-18.4c3.4-2.6,4.2-5.4,4.1-9.3C41,23,41.2,16.5,41.1,10
			c0-0.5-0.3-1.1-0.5-1.6c-9-1.2-20,6-24.1,15.8c-5.4,13.1-5.4,26.1,2.4,38.4c6.7,10.5,6.7,21.7,5.6,33.2
			C23.9,96,23.4,96.1,22.8,96.3z M46.3,38.6c-5.7-0.1-10.6,5.2-10.5,11.3c0.1,6.1,4.5,10.8,10.2,10.9c6,0.1,10.6-4.8,10.5-11.1
			C56.4,43.8,51.7,38.6,46.3,38.6z M47.1,7.8c-0.7,0-1.5,0-2.2,0c-0.6,8.7-0.7,17.5,0,26.2c0.7,0,1.5,0,2.2,0
			C47.1,25.3,47.1,16.5,47.1,7.8z"/>
		<path class="st3" d="M46.3,38.6c5.4,0.1,10.1,5.2,10.2,11C56.6,56,51.9,60.8,46,60.7c-5.7-0.1-10.1-4.8-10.2-10.9
			C35.7,43.8,40.6,38.5,46.3,38.6z M45.8,56.9c4.1,0,7.3-3.3,7.4-7c0.1-3.8-3.4-7.6-7-7.6c-3.8,0-7.2,3.6-6.8,7.7
			C39.7,54,41.8,56.7,45.8,56.9z"/>
		<path class="st3" d="M47.1,7.8c0,8.7,0,17.5,0,26.2c-0.7,0-1.5,0-2.2,0c-0.7-8.7-0.6-17.5,0-26.2C45.6,7.8,46.3,7.8,47.1,7.8z"/>
		<path d="M45.8,56.9c-3.9-0.2-6.1-2.9-6.5-6.9c-0.4-4,3-7.6,6.8-7.7c3.7,0,7.2,3.7,7,7.6C53,53.6,49.8,56.9,45.8,56.9z M46.3,45.2
			c-1.6,2-3.5,3.5-3.3,4.3c0.4,1.4,2.2,2.4,3.4,3.6c1-1.2,2.7-2.3,2.8-3.5C49.4,48.5,47.7,47.2,46.3,45.2z"/>
		<path class="st3" d="M46.3,45.2c1.5,2,3.1,3.3,3,4.4c-0.1,1.3-1.8,2.4-2.8,3.5c-1.2-1.2-3-2.2-3.4-3.6
			C42.8,48.6,44.7,47.2,46.3,45.2z"/>
	</g>
</g>
<g id="diamond" class="st0">
	<g class="st1">
		<path d="M50.2,7.6c8.2,0,16.3-0.3,24.4,0.2c2.6,0.2,5.8,1.8,7.4,3.9c5.1,6.4,9.5,13.3,14.2,19.9c2.6,3.7,3.2,7.2-0.2,11
			C82.2,58.3,68.2,74,54.5,89.9c-3.4,4-6.1,3.2-8.9-0.1c-14-16-27.8-32.1-41.8-48.1c-2.5-2.9-3-5.1-0.6-8.4
			c5.1-6.9,9.5-14.4,14.9-21.1c1.8-2.3,5.4-4.1,8.4-4.4C34.3,7.2,42.3,7.6,50.2,7.6z M33.7,41.1c5.5,13,10.5,24.9,15.5,36.8
			c0.6,0.1,1.2,0.1,1.8,0.2c5.1-12,10.1-24,15.6-37C55.4,41.1,45.5,41.1,33.7,41.1z M65.9,33.5c-2.6-5.7-4.8-10.3-6.9-14.9
			c-2.2-4.6-13-6.9-15.8-2.8C39.6,21,37.3,26.9,34,33.5C45.2,33.5,54.8,33.5,65.9,33.5z M11.8,32.1c0.4,0.8,0.7,1.5,1.1,2.3
			c4.8-0.8,11.4,0.1,14.1-2.8c4-4.2,7.5-10.3,8-18.6c-5.1,1.3-10,1.1-12.3,3.5C18.2,21,15.3,26.8,11.8,32.1z M64.5,15
			c8.4,19.8,12.2,22.5,24,17c-2.6-4-5.5-7.7-7.6-11.8C77.2,13.3,71.5,13.4,64.5,15z M61.9,68.2c0.6,0.4,1.2,0.9,1.8,1.3
			c7.9-9,15.8-18.1,23.7-27.1c-0.3-0.8-0.7-1.7-1-2.5c-4.6,1-11.5,0.5-13.3,3.3C68.2,50.7,65.5,59.7,61.9,68.2z M12.1,41.6
			c9,10.2,17.2,19.5,25.3,28.8c0.4-0.4,0.8-0.7,1.3-1.1c-2.7-6.3-5.5-12.5-8-18.9C26.4,39.6,25.7,39.1,12.1,41.6z"/>
		<path class="st3" d="M33.7,41.1c11.8,0,21.7,0,32.9,0c-5.5,13-10.5,25-15.6,37c-0.6-0.1-1.2-0.1-1.8-0.2
			C44.2,66,39.2,54.1,33.7,41.1z"/>
		<path class="st3" d="M65.9,33.5c-11.1,0-20.7,0-31.9,0c3.3-6.5,5.6-12.5,9.2-17.6C46,11.7,56.8,14,59,18.6
			C61.1,23.2,63.3,27.8,65.9,33.5z"/>
		<path class="st3" d="M11.8,32.1c3.5-5.3,6.4-11.2,10.8-15.6c2.4-2.4,7.2-2.2,12.3-3.5c-0.5,8.3-3.9,14.4-8,18.6
			c-2.7,2.8-9.3,2-14.1,2.8C12.5,33.7,12.1,32.9,11.8,32.1z"/>
		<path class="st3" d="M64.5,15c7-1.6,12.6-1.7,16.3,5.2c2.2,4.1,5,7.8,7.6,11.8C76.7,37.5,72.9,34.8,64.5,15z"/>
		<path class="st3" d="M61.9,68.2c3.6-8.5,6.3-17.5,11.2-25.1c1.8-2.8,8.7-2.3,13.3-3.3c0.3,0.8,0.7,1.7,1,2.5
			c-7.9,9-15.8,18.1-23.7,27.1C63.1,69.1,62.5,68.6,61.9,68.2z"/>
		<path class="st3" d="M12.1,41.6c13.5-2.6,14.3-2.1,18.5,8.8c2.5,6.4,5.4,12.6,8,18.9c-0.4,0.4-0.8,0.7-1.3,1.1
			C29.3,61.1,21.1,51.8,12.1,41.6z"/>
	</g>
</g>
<g id="children" class="st0">
	<g class="st1">
		<path d="M26.7,73.9c-0.4,1.9-1.1,3.9-1.1,5.8c-0.2,4.4,0.5,9-0.4,13.3c-0.5,2.3-3.4,4-5.2,6c-1.7-2.1-4.6-4-4.9-6.3
			c-0.7-6.2-0.3-12.5-0.3-18.7c0-2.1-0.2-4.2-0.3-5.4c-3.6-0.4-7.7,0.3-8.7-1.1c-1.5-2.1-1.3-5.8-0.9-8.7C6,52.5,7.6,46.2,9.2,40
			c1.6-6.2,5.6-9.6,12.3-9.5c3.8,0,7.7-0.1,11.5,0c8,0.3,11.5,3.3,13.4,11.2c1,4,1.9,8,2.9,12c0.5,0,1.1,0,1.6,0.1
			c1.7-4.5,3.6-9,5.2-13.7c2.1-6.3,6.1-9.5,13-9.5c14,0,14.6,0.2,19.8,13.4c2.1,5.2,3.9,10.6,5.9,15.8c2.3,6.3-1.9,13.3-8.6,13.6
			c-4.2,0.2-5.1,2.2-5,5.7c0.1,4.2,0.1,8.5,0,12.7C81,95.8,80,99.1,75,99.1c-10,0-11.9-0.9-12.3-7.2c-0.3-4.4,0-8.9-0.2-13.3
			c-0.1-1.5-0.5-3.9-1.4-4.3c-5-1.9-10.2-3.3-15.3-4.9c-1.3-0.4-2.6-1-5.3-2c0,5.7,0,10.8,0,15.9c0,3.2,0.6,6.7-0.3,9.6
			c-0.7,2.4-3.1,5.5-5.2,6c-3.9,0.8-5.5-2.5-5.6-6.1c-0.1-4.4,0.1-8.9-0.1-13.3c0-1.8-0.5-3.6-0.8-5.3C28,74,27.4,74,26.7,73.9z
			 M62,46.2c0.6,0.2,1.2,0.4,1.7,0.5C64.7,54.6,58,60.9,58,69c9.6,0,18.8,0,28.6,0c-1.5-4.6-2.7-8.4-4-12.2
			c-2.7-8.3-2.7-8.3-0.6-10.8c2.7,6.4,5.2,12.5,7.8,18.6c0.7-0.3,1.5-0.6,2.2-0.9c-2.5-6.9-5.5-13.6-7.4-20.6
			c-1.9-7.1-6.2-8.9-12.9-8.9c-6.4,0-10.7,2-12.7,8.5c-2.2,7.3-5,14.4-7.5,21.6c0.8,0.3,1.5,0.6,2.3,0.9
			C56.6,58.8,59.3,52.5,62,46.2z M45.3,64.6c0.9-0.2,1.8-0.5,2.7-0.7c-2.5-8.7-4.7-17.6-7.5-26.2c-0.5-1.5-3.4-3-5.3-3.2
			c-5-0.5-10.1-0.7-15,0c-2.3,0.3-5.5,2.5-6.2,4.6c-2.6,8-4.3,16.2-6.3,24.4c0,0.2,0.9,0.6,1.9,1.4c2.1-6.8,4.1-13.2,6.1-19.7
			c0.6-0.2,1.1-0.3,1.7-0.5c1.5,5.8,0.7,12.1,10.3,12c9.5-0.1,9.3-5.8,10.4-12.1c0.6,0.2,1.1,0.3,1.7,0.5
			C41.5,51.5,43.4,58,45.3,64.6z M27.2,70.2c0-0.2,0.1-0.3,0.1-0.5c1,0,2,0,3,0c3.7,0.2,6.8,0,6.6-5.2c-0.1-4.9-3.1-4.9-6.5-4.8
			c-2.4,0-4.9-0.3-7.2,0.1C21.7,60,19.3,60.9,19,62c-0.6,2-0.8,5.4,0.4,6.2C21.4,69.7,24.5,69.6,27.2,70.2z M69.3,73
			c-4.2,5.4-4,18.4,0,22.1C69.3,87.8,69.3,81,69.3,73z M19.2,74.3c0,6.7,0,13.4,0,20.7C23.1,91.3,23.4,79,19.2,74.3z M33.8,73.4
			c0,7.5,0,14.2,0,21.8C37.9,90.9,37.9,77.8,33.8,73.4z M74.7,94.5c4.2-2.6,4.5-16.7,0-21C74.7,80.9,74.7,87.6,74.7,94.5z"/>
		<path d="M56.1,25c-5.6,2.2-6.9-0.3-5.8-5c1.6-7,12.4-17.7,19.5-19c1-0.2,2-0.2,3-0.1c8.4,0.6,20.7,12.9,21,21.4
			c0.2,6.3-5.4,4.7-7.8,3.8c-3.7-1.4-6.3-0.5-9.4,0.8c-2,0.8-4.3,1.3-6.4,1C65.5,27.2,60.8,26,56.1,25z M81,14.4
			c-0.1-5.2-4.1-9.5-8.9-9.6c-4.9-0.1-9.4,4.7-9.2,10c0.1,5,4.3,9.5,9,9.5C76.9,24.4,81.1,19.8,81,14.4z"/>
		<path d="M40.3,14.6c0,7.5-6.2,14-13.1,13.7c-6.9-0.3-12.3-6.4-12.3-13.8C15,7,20.4,1,27.3,0.9C34.5,0.8,40.4,7,40.3,14.6z
			 M27.7,4.8c-4.8-0.1-8.9,4.1-9,9.3c-0.2,6.1,3.3,10.1,8.7,10.2c4.8,0,9.1-4.2,9.3-9.3C36.9,9.8,32.6,4.9,27.7,4.8z"/>
		<path class="st3" d="M62,46.2c-2.7,6.3-5.5,12.6-8.2,18.9c-0.8-0.3-1.5-0.6-2.3-0.9c2.5-7.2,5.3-14.3,7.5-21.6
			c2-6.5,6.3-8.5,12.7-8.5c6.7,0,11,1.9,12.9,8.9c1.9,7,4.9,13.8,7.4,20.6c-0.7,0.3-1.5,0.6-2.2,0.9C87.3,58.5,84.7,52.4,82,46
			c-2.1,2.6-2.1,2.6,0.6,10.8c1.2,3.8,2.5,7.6,4,12.2c-9.8,0-19,0-28.6,0c0-8.1,6.7-14.4,5.8-22.3C63.2,46.5,62.6,46.4,62,46.2z"/>
		<path class="st3" d="M45.3,64.6C43.4,58,41.5,51.5,39.7,45c-0.6-0.2-1.1-0.3-1.7-0.5c-1.1,6.3-0.9,12-10.4,12.1
			c-9.6,0.1-8.8-6.2-10.3-12c-0.6,0.2-1.1,0.3-1.7,0.5c-2,6.5-4,13-6.1,19.7c-1-0.7-1.9-1.2-1.9-1.4c2-8.2,3.7-16.4,6.3-24.4
			c0.7-2.1,3.9-4.3,6.2-4.6c4.9-0.7,10.1-0.5,15,0c1.9,0.2,4.8,1.7,5.3,3.2c2.8,8.6,5.1,17.4,7.5,26.2
			C47.1,64.1,46.2,64.3,45.3,64.6z"/>
		<path class="st3" d="M27.2,70.2c-2.7-0.6-5.8-0.6-7.8-2c-1.1-0.8-1-4.3-0.4-6.2c0.3-1.1,2.7-2,4.2-2.2c2.4-0.4,4.8-0.1,7.2-0.1
			c3.4-0.1,6.4-0.1,6.5,4.8c0.1,5.2-2.9,5.4-6.6,5.2c-1,0-2,0-3,0C27.2,69.9,27.2,70.1,27.2,70.2z"/>
		<path class="st3" d="M69.3,73c0,8,0,14.8,0,22.1C65.3,91.4,65.1,78.4,69.3,73z"/>
		<path class="st3" d="M19.2,74.3c4.2,4.7,3.9,17,0,20.7C19.2,87.7,19.2,81,19.2,74.3z"/>
		<path class="st3" d="M33.8,73.4c4.1,4.3,4.1,17.5,0,21.8C33.8,87.7,33.8,81,33.8,73.4z"/>
		<path class="st3" d="M74.7,94.5c0-6.9,0-13.6,0-21C79.2,77.8,78.9,92,74.7,94.5z"/>
		<path class="st3" d="M81,14.4c0.1,5.4-4.1,10-9.1,9.9c-4.7-0.1-8.9-4.5-9-9.5c-0.1-5.2,4.3-10,9.2-10C76.9,4.8,80.9,9.2,81,14.4z"
			/>
		<path class="st3" d="M27.7,4.8c4.9,0.1,9.2,5,9,10.2c-0.2,5.1-4.5,9.3-9.3,9.3c-5.4-0.1-8.9-4.1-8.7-10.2
			C18.8,8.9,22.9,4.7,27.7,4.8z"/>
	</g>
</g>
<g id="fingerPrint" class="st0">
	<g class="st1">
		<path d="M21,85.2c-2.3-1.7-3-2-3.2-2.5c-4.3-13.5-5.5-26.9,2.5-39.5C27.8,31.6,38.7,26,52.5,27C70.5,28.2,86,46.3,84.8,64.3
			c-0.5,7.2-5.7,13-12.2,13.6c-6.6,0.6-12.3-4.1-14-11.6c-0.7-2.8-0.7-6.5-2.5-8c-2.3-1.9-6.4-3.2-9.3-2.6c-4.7,0.8-6.3,5.2-6,9.7
			c0.7,11.8,5.8,21,16.6,26.5c0.9,0.5,2.1,0.7,2.8,1.4c1.2,1.3,2.2,2.8,3.3,4.2c-1.8,0-3.9,0.6-5.4-0.1c-14-5.8-20.3-17-21.7-31.5
			c-0.8-8.2,5.1-15.5,12.3-16.1c6.9-0.7,13,5.3,14,13.7c0.7,6,4.4,9.8,9.4,9.6c5.2-0.2,8.9-4.8,8.8-10.8
			c-0.4-16.1-14.4-30.2-30.5-30.5c-16.4-0.4-30.6,12.5-31.4,29c-0.3,5.7,1,11.5,1.5,17.3C20.5,79.8,20.7,81.7,21,85.2z"/>
		<path d="M70.5,65.9c-0.5-1.9-0.9-3.8-1.4-5.7c-2.3-10.9-11.1-17.8-21.3-16.8c-10.3,1-18.3,9.9-18.4,20.9c-0.1,9.7,3.3,18.3,9.1,26
			c0.8,1,1.8,1.8,2.3,2.9c0.4,1,0.3,2.2,0.4,3.3c-1.2-0.2-3.1,0-3.5-0.7c-3.8-6.3-8.4-12.5-10.7-19.3C22.1,62,26.6,48.8,37.8,41.9
			c7.3-4.6,15.2-4.5,22.6-0.7c8.3,4.3,12.8,11.6,13.3,21.1c0.1,1.2-0.8,2.5-1.2,3.8C71.8,65.9,71.2,65.9,70.5,65.9z"/>
		<path d="M85.8,40c-1.3-1.2-2.7-2.2-3.8-3.6C65.1,15,35.7,14.4,18.1,35c-1.5,1.8-3.9,3-5.8,4.4c0.9-2.4,1.3-5.2,2.8-7.1
			c18-23,52.9-22.5,70.2,0.8c1.2,1.6,1.7,3.7,2.5,5.6C87.1,39.2,86.5,39.6,85.8,40z"/>
		<path d="M49.9,2.3c8,2.6,15.6,5,23.1,7.7c1.3,0.5,2,2.5,2.9,3.8c-1.7,0-3.5,0.3-5.1-0.2c-2.8-0.8-5.3-2.4-8.1-3.1
			c-11.6-3.1-22.9-2.4-33.9,2.9c-1.5,0.7-3.6,0.1-5.4,0.1c1.1-1.3,1.9-3.2,3.2-3.7C34.2,7.2,41.8,4.9,49.9,2.3z"/>
		<path d="M49.3,60.3c1.3,3.2,2.4,4.8,2.7,6.5c2.1,11.8,8.5,17.2,20.4,17.4c1.5,0,3.1,1.1,4.6,1.7c-1.3,1-2.6,2.6-4.1,2.8
			C56,91.1,44.1,72.6,49.3,60.3z"/>
	</g>
</g>
<g id="clock">
	<g>
		<path d="M49.5,90.7c-9.5,0-19-0.5-28.4,0.1C12.9,91.3,8.5,87.5,6,80.4c-9-25.1-1-55.4,26.7-67.6c11.6-5,23.8-5.1,35.4,0.8
			c2,1,2.9,4.4,4.2,6.7c-2.7,0.7-5.9,2.6-8.2,1.8c-14.8-5.3-28.1-3.5-39.4,7.7c-11.8,11.7-15.5,25.8-11.3,42c1.6,6,4.4,9.2,11.4,8.9
			c17.2-0.5,34.4-0.3,51.6-0.1c5.1,0.1,7.6-1.6,9.2-6.6c2.9-9.5,3.1-18.7-0.2-28c-1.3-3.7-3.8-8.5,1.8-9.8c1.7-0.4,5.8,4.3,7,7.4
			c5,12.2,3.7,24.6-0.5,36.7c-2.3,6.8-6.5,10.7-14.4,10.3C69.5,90.3,59.5,90.7,49.5,90.7z"/>
		<path d="M77.6,33.9c-7.2,11.3-14.1,22.7-21.7,33.7c-3.2,4.7-8.1,4.5-12.3,0.8c-4.6-4.1-5.7-9.2-1.2-13.7
			c4.2-4.2,9.3-7.3,14.1-10.9c4.2-3.1,8.3-6.4,12.6-9.3c2-1.3,4.4-1.9,6.7-2.9C76.4,32.3,77,33.1,77.6,33.9z"/>
	</g>
</g>
</svg>
