<?xml version="1.0" encoding="utf-8"?>
<!-- Generator: Adobe Illustrator 27.0.0, SVG Export Plug-In . SVG Version: 6.00 Build 0)  -->
<svg version="1.1" xmlns="http://www.w3.org/2000/svg" xmlns:xlink="http://www.w3.org/1999/xlink" x="0px" y="0px"
	 viewBox="0 0 100 100" style="enable-background:new 0 0 100 100;" xml:space="preserve">
<style type="text/css">
	.st0{display:none;}
	.st1{display:inline;}
	.st2{fill:#010101;}
	.st3{fill:#FFFFFF;}
</style>
<g id="Layer_1" class="st0">
	<g class="st1">
		<path class="st2" d="M60.3,94.7c-3.6,0.3-7.2-3.8-7.1-7.3c0.1-3.9,3.3-7,7.3-7c3.8,0,6.8,3.2,7,7C67.5,91.1,63.9,95.3,60.3,94.7z"
			/>
		<path class="st2" d="M10.9,69.2c-4.1,0.2-7.1-3.3-7.2-7c0-3.9,3.2-7.1,7-7.1c4.1,0,7.2,3,7.2,7C18.1,66.4,15.2,69.3,10.9,69.2z"/>
		<path class="st2" d="M94.5,39c0,4.1-2.9,6.9-7,7c-4.6,0.1-7.2-3.8-7.2-7.1c0-3.8,3.4-7.2,7.3-7.1C91,32,94.8,34.6,94.5,39z"/>
		<path class="st2" d="M38.7,19.1c-4.5-0.1-7.2-2.9-7.2-7c0-4,2.4-7,7.1-7.2c3.8-0.2,7.1,3.3,7.1,7.2C45.7,15.9,42.6,19.1,38.7,19.1
			z"/>
		<path class="st2" d="M99.2,53.4c0,3.5-2.4,5.9-5.9,6c-3.4,0.1-5.9-2.4-6-5.7c-0.1-3.3,2.7-6,5.9-6.1
			C96.4,47.6,99.1,50.3,99.2,53.4z"/>
		<path class="st2" d="M45.1,98.3c-2.6,0-6-2.3-5.8-6.2c0.1-3.4,3.1-5.8,6-5.7c3.1,0.1,5.8,3,5.6,6.2C50.7,95.7,48.1,98.3,45.1,98.3
			z"/>
		<path class="st2" d="M53.8,1.7c3.6,0,5.9,2.2,6,5.7c0.1,3.3-2.9,5.8-5.9,5.9c-2.8,0.1-6-2.6-5.8-6.1C48.2,3.9,50.3,1.7,53.8,1.7z"
			/>
		<path class="st2" d="M26.8,28.6C23.4,28.5,21,26,21,22.5c0.1-2.9,2.9-5.6,5.9-5.6c3.1,0.1,5.8,2.8,5.8,6
			C32.7,26.3,30.1,28.7,26.8,28.6z"/>
		<path class="st2" d="M29.3,74.3c0,3.3-2.4,5.8-5.6,5.9c-3.2,0-6.1-2.8-6.1-5.9c0-3,2.9-5.8,6-5.8C26.6,68.4,29.3,71.2,29.3,74.3z"
			/>
		<path class="st2" d="M6.7,39.8c3.6,0,6,2.2,5.8,5.6c-0.2,3.6-2.1,5.5-5.7,5.8c-3,0.3-6.2-2.8-6-5.8C1,42.5,2.6,39.7,6.7,39.8z"/>
		<path class="st2" d="M76.9,20.1c3.6-0.2,5.9,2.4,6.1,5.3c0.2,3.3-2.6,6.1-5.9,6.2c-2.7,0.1-5.8-2.4-5.7-5.6
			C71.4,22.4,73.3,20.2,76.9,20.1z"/>
		<path class="st2" d="M73.2,70.5c3.3,0,5.7,2.4,5.6,5.6c-0.1,3.8-2.8,6-5.7,5.9c-3.1-0.1-5.7-2.1-5.7-6
			C67.4,72.7,69.7,70.5,73.2,70.5z"/>
		<path class="st2" d="M7.6,37.2c-2.5,0-4.8-2.2-4.8-4.7s2.2-4.6,4.9-4.6c2.6,0,4.5,1.9,4.5,4.5C12.2,35.4,10.5,37.2,7.6,37.2z"/>
		<path class="st2" d="M35.2,84.8c-2.3,0-4.6-2.4-4.7-4.8c0-2.6,2.2-4.8,4.7-4.8c2.4,0,4.6,2.3,4.6,4.8
			C39.9,82.3,37.5,84.8,35.2,84.8z"/>
		<path class="st2" d="M25.9,90.9c0.1-2.7,2-4.7,4.6-4.6c2.4,0.1,4.6,2.4,4.6,4.8c-0.1,2.5-2.2,4.6-4.8,4.6
			C27.6,95.7,25.9,93.7,25.9,90.9z"/>
		<path class="st2" d="M63.4,16.7c2.6,0,4.9,2.2,4.8,4.5c-0.1,2.3-2.6,4.7-5,4.7c-2.6,0-4.5-2.1-4.4-4.8
			C58.9,18.2,60.5,16.7,63.4,16.7z"/>
		<path class="st2" d="M86,67.5c0.1-2.9,1.7-4.5,4.4-4.5c2.6,0,4.8,2.4,4.8,4.8c-0.1,2.3-2.6,4.8-4.9,4.6
			C87.6,72.2,85.8,70.8,86,67.5z"/>
		<path class="st2" d="M73.8,63.6c0-2.7,1.8-4.7,4.4-4.7c2.4,0,4.8,2.3,4.8,4.6c0,2.6-2.1,4.6-4.7,4.7
			C75.5,68.2,73.8,66.5,73.8,63.6z"/>
		<path class="st2" d="M20.9,31.5c2.4,0,4.6,2.1,4.6,4.6c0,2.4-2.3,4.6-4.6,4.6c-2.6,0-4.7-2-4.7-4.6C16.1,33.2,17.9,31.5,20.9,31.5
			z"/>
		<path class="st2" d="M64,8.7c-0.2-2.5,1.5-4.5,4.3-4.6c3.3-0.1,4.8,2.4,4.9,4.5c0.1,2.4-2.3,4.7-4.8,4.8C66,13.5,64,11.3,64,8.7z"
			/>
		<path class="st2" d="M21.7,86.3c0,1.1-1,2.3-2.1,2.3c-1.2,0.1-2.3-1.1-2.3-2.3s0.9-2.2,2.1-2.3C20.6,84,21.7,85.1,21.7,86.3z"/>
		<path class="st2" d="M78.5,16.2c-1.3,0-2.3-1.1-2.2-2.3s1.1-2.1,2.3-2.1s2.3,1.1,2.2,2.3C80.7,15.1,79.5,16.2,78.5,16.2z"/>
		<path class="st2" d="M79.2,55.6c-1.1,0-2.1-1-2.1-2.3c0-1.2,1-2.3,2.1-2.3c1.1,0,2.3,1.2,2.3,2.2C81.4,54.5,80.3,55.6,79.2,55.6z"
			/>
		<path class="st2" d="M46.5,82.6c-1.3,0-2.1-0.9-2.1-2.2c0-1.3,0.9-2.4,2.2-2.3c1.1,0,2.1,1.1,2.1,2.3
			C48.7,81.6,47.7,82.6,46.5,82.6z"/>
		<path class="st2" d="M15.1,22.6c0.1,1.1-0.9,2.2-1.9,2.3c-1.3,0.1-2.3-0.9-2.4-2.2c-0.1-1.2,0.9-2.1,2.1-2.2S15,21.3,15.1,22.6z"
			/>
		<path class="st2" d="M85.7,80.8c-1.2,0.1-2-0.8-2.1-2c-0.1-1.3,0.6-2.1,1.8-2.3c1.3-0.1,2.5,0.9,2.5,2
			C87.9,79.6,86.8,80.7,85.7,80.8z"/>
		<path class="st2" d="M19.4,45.9c1.3,0.1,2.2,0.8,2.1,2c-0.1,1.1-1.1,2.1-2.1,2.1c-1.2,0-2.2-1-2.1-2.2
			C17.3,46.5,18,45.9,19.4,45.9z"/>
		<path class="st2" d="M51.7,18.5c1.6,0.3,2.4,1.2,2.4,2.4C54,22,53,23,52,23c-0.9,0-2.6-1.4-2.2-2.2C50.2,19.9,51,19.2,51.7,18.5z"
			/>
		<path class="st2" d="M85.4,19.1c-0.7,0.3-1.1,0.8-1.4,0.6c-0.3-0.1-0.6-0.6-0.7-1c-0.1-0.2,0.6-0.6,0.8-0.6
			C84.6,18.2,84.9,18.6,85.4,19.1z"/>
		<path class="st2" d="M55,78.9c-0.5,0.4-0.8,0.6-1.1,0.9c-0.3-0.3-0.6-0.6-0.7-0.9c0-0.2,0.5-0.7,0.8-0.7
			C54.2,78.1,54.5,78.6,55,78.9z"/>
		<path class="st2" d="M18.6,16c-0.6,0.4-1,0.8-1.3,0.8c-0.3,0-0.6-0.4-0.9-0.7c0.3-0.3,0.6-0.6,0.8-0.7
			C17.5,15.3,17.9,15.6,18.6,16z"/>
		<path class="st2" d="M78.3,45.2c-0.6,0.3-0.9,0.6-1.3,0.6c-0.3-0.1-0.5-0.4-0.8-0.7c0.3-0.3,0.6-0.7,0.9-0.7
			C77.5,44.3,77.8,44.7,78.3,45.2z"/>
	</g>
</g>
<g id="eye">
	<g>
		<path d="M48.5,78.5C29.9,77.9,15.2,67,2.3,53.3c-1.1-1.2-0.9-5.6,0.4-6.9c11.1-11.9,23.8-21.6,40.4-24.2
			c17.2-2.7,31.4,4.4,44,15.1c15.2,12.8,15.1,13.3-0.4,26.1C76,72.1,64.1,78.1,48.5,78.5z M5,49.3c15.4,18,38.2,31.4,59.5,21.9
			c9.8-4.4,18.3-12,27.1-18.4c0.9-0.7,1.4-3.9,0.7-4.5c-5.4-5.1-11.1-9.9-16.4-14.5c-2,9-2.5,17.2-5.8,24.2
			c-3.6,7.7-11.4,12-20,11.6c-5.3-0.3-11.2-2.5-15.5-5.6c-9.8-7.2-10.4-18.1-8.4-29.6c-0.7-0.3-1.4-0.5-2.1-0.8
			C17.8,38.7,11.6,43.8,5,49.3z M70.3,43.4c0-12.2-6.6-17.8-20.9-17.7c-13.9,0.1-20.1,5.5-20,17.7c0,12.3,8.7,21.7,20.1,21.8
			C61.1,65.4,70.3,55.7,70.3,43.4z"/>
		<path class="st3" d="M5,49.3c6.6-5.4,12.8-10.6,19-15.7c0.7,0.3,1.4,0.5,2.1,0.8c-2,11.5-1.3,22.4,8.4,29.6
			c4.3,3.1,10.2,5.3,15.5,5.6c8.6,0.5,16.5-3.8,20-11.6c3.2-7,3.8-15.2,5.8-24.2c5.3,4.6,11,9.3,16.4,14.5c0.7,0.6,0.2,3.9-0.7,4.5
			c-8.9,6.4-17.3,14-27.1,18.4C43.2,80.7,20.4,67.3,5,49.3z"/>
		<path class="st3" d="M70.3,43.4c0,12.3-9.2,22-20.8,21.9c-11.4-0.1-20.1-9.5-20.1-21.8c0-12.2,6.1-17.7,20-17.7
			C63.6,25.6,70.3,31.2,70.3,43.4z M49.8,32.6c-5.3-0.1-10,4.9-10,10.6c0,6,4.2,10.9,9.7,11c5.6,0.2,10.6-5,10.6-11
			C59.9,37.7,55.2,32.7,49.8,32.6z"/>
		<path d="M49.8,32.6c5.4,0.1,10.2,5,10.2,10.6c0,6-4.9,11.1-10.6,11c-5.4-0.1-9.7-5-9.7-11C39.8,37.5,44.4,32.6,49.8,32.6z"/>
	</g>
</g>
</svg>
